<svg xmlns="http://www.w3.org/2000/svg" width="506" height="670" viewBox="0 0 506 670" fill="none"><path d="M146.4 351.868C296.392 248.158 395.368 154.106 257.004 9.85474C229.725 3.46451 203.011 0.196063 178.561 0.00749866C-21.9248 -1.48006 209.045 218.742 172.778 316.251C167.75 329.743 158.343 341.372 146.421 351.868H146.4Z" fill="url(#paint0_linear_86_873)"></path><path d="M257.003 9.85535C395.368 154.107 296.392 248.159 146.4 351.89C84.8861 406.029 -43.7147 430.312 14.9707 527.862C55.9729 595.997 85.2004 635.239 107.032 654.619C68.3972 583.845 136.972 568.906 280.364 494.298C370.309 445.418 500 414.514 504.944 280.613C510.58 128.022 378.25 38.2447 256.982 9.8763L257.003 9.85535Z" fill="url(#paint1_linear_86_873)"></path><path d="M280.385 494.277C136.993 568.864 68.4181 583.803 107.053 654.598C173.867 713.786 171.835 587.155 227.105 531.885C241.52 517.47 259.915 505.423 280.385 494.298V494.277Z" fill="url(#paint2_linear_86_873)"></path><defs><linearGradient id="paint0_linear_86_873" x1="278.521" y1="231.732" x2="-6.44157" y2="42.9792" gradientUnits="userSpaceOnUse"><stop stop-color="#6B3F98"></stop><stop offset="1" stop-color="#7E3F98"></stop></linearGradient><linearGradient id="paint1_linear_86_873" x1="2.31592" y1="555.916" x2="433.164" y2="125.047" gradientUnits="userSpaceOnUse"><stop stop-color="#F68A1F"></stop><stop offset="0.49" stop-color="#EE203A"></stop><stop offset="1" stop-color="#CC2027"></stop></linearGradient><linearGradient id="paint2_linear_86_873" x1="167.875" y1="548.583" x2="290.086" y2="670.794" gradientUnits="userSpaceOnUse"><stop stop-color="#4B3F99"></stop><stop offset="0.02" stop-color="#4F3F98"></stop><stop offset="0.13" stop-color="#603F98"></stop><stop offset="0.27" stop-color="#6C3F98"></stop><stop offset="0.46" stop-color="#733F98"></stop><stop offset="1" stop-color="#753F98"></stop></linearGradient></defs></svg>