<svg xmlns="http://www.w3.org/2000/svg" width="167" height="48" viewBox="0 0 167 48" fill="none"><path d="M46.189 19.4637C46.189 19.091 46.2391 18.7684 46.3362 18.4959C46.4364 18.2234 46.5617 17.9979 46.7183 17.8194C46.8749 17.6408 47.0565 17.5062 47.2601 17.4122C47.4668 17.3182 47.6767 17.2556 47.8897 17.2211C48.0525 17.1867 48.2467 17.1522 48.4691 17.1178C48.6915 17.0833 48.9702 17.0551 49.3085 17.0301C49.6468 17.005 50.0571 16.9831 50.5425 16.9674C51.028 16.9518 51.6168 16.9424 52.309 16.9424C53.7905 16.9424 55.0245 17.1178 56.0143 17.4654C57.0009 17.8131 57.7964 18.2735 58.3978 18.8404C58.9991 19.4105 59.4251 20.0619 59.6819 20.8011C59.9356 21.5403 60.064 22.3014 60.064 23.0812C60.064 23.9801 59.9231 24.8039 59.6443 25.5524C59.3656 26.301 58.9271 26.9399 58.3351 27.4755C57.7432 28.0111 56.9821 28.4277 56.0519 28.7252C55.1216 29.0228 54.016 29.17 52.7319 29.17C52.4343 29.17 52.1462 29.1606 51.8674 29.1449C51.5887 29.1293 51.3318 29.1105 51.1032 29.0948C50.8714 29.0792 50.6803 29.0572 50.5237 29.0322C50.3671 29.0071 50.2638 28.9946 50.2137 28.9946V34.6762H46.189V19.47V19.4637ZM50.2137 25.399C50.3296 25.4146 50.53 25.4459 50.8182 25.4867C51.1063 25.5305 51.5793 25.5493 52.237 25.5493C52.9949 25.5493 53.6088 25.4773 54.0755 25.3332C54.5453 25.1891 54.9118 24.9981 55.1749 24.76C55.438 24.522 55.6165 24.2558 55.7042 23.9582C55.795 23.6607 55.8389 23.3694 55.8389 23.0781C55.8389 22.8056 55.8013 22.5269 55.7292 22.2387C55.6541 21.9506 55.4943 21.6812 55.2469 21.4369C54.9995 21.1895 54.6424 20.9859 54.1726 20.8261C53.7028 20.6664 53.0733 20.585 52.284 20.585C51.7077 20.585 51.2379 20.5975 50.8777 20.6226C50.5144 20.6476 50.292 20.6695 50.2105 20.6852V25.399H50.2137Z" fill="#4D4D4F"></path><path d="M61.6958 19.4637C61.6958 19.091 61.7459 18.7684 61.843 18.4959C61.9432 18.2234 62.0685 17.9979 62.2251 17.8194C62.3817 17.6408 62.5634 17.5062 62.767 17.4122C62.9737 17.3182 63.1835 17.2556 63.3965 17.2211C63.5594 17.1867 63.7536 17.1522 63.9759 17.1178C64.1983 17.0833 64.4771 17.0551 64.8153 17.0301C65.1536 17.005 65.5639 16.9831 66.0494 16.9674C66.5348 16.9518 67.1237 16.9424 67.8159 16.9424C69.2973 16.9424 70.5314 17.1084 71.5211 17.4404C72.5077 17.7724 73.3032 18.2171 73.9046 18.7778C74.506 19.3384 74.9319 19.9805 75.1887 20.7009C75.4424 21.4244 75.5709 22.1729 75.5709 22.956C75.5709 23.9927 75.3641 24.9229 74.9538 25.7466C74.5435 26.5704 73.867 27.2469 72.9305 27.7731C73.178 28.1803 73.4505 28.6563 73.7449 29.1982C74.0424 29.7431 74.3494 30.3163 74.672 30.9177C74.9946 31.5222 75.3109 32.1454 75.6241 32.7907C75.9373 33.4359 76.2317 34.0654 76.5136 34.6762H71.7967C71.7153 34.4882 71.5618 34.1374 71.3394 33.6175C71.1171 33.1007 70.8602 32.5401 70.5752 31.9356C70.2871 31.3342 69.9895 30.7423 69.6857 30.166C69.3819 29.5897 69.1219 29.1387 68.909 28.8161C68.6772 28.8505 68.4423 28.8662 68.2042 28.8662H67.4494C67.3492 28.8662 67.2145 28.863 67.0422 28.8536C66.87 28.8442 66.6914 28.838 66.5129 28.8286C66.3313 28.8192 66.1684 28.8129 66.0181 28.8035C65.8708 28.7941 65.7706 28.7816 65.7205 28.7659V34.6762H61.6958V19.47V19.4637ZM65.7205 25.1453C65.7706 25.1453 65.8395 25.1547 65.9304 25.1703C66.0212 25.186 66.1496 25.2048 66.3125 25.2204C66.4753 25.2361 66.6852 25.2518 66.942 25.258C67.1957 25.2674 67.5152 25.2706 67.8942 25.2706C68.602 25.2706 69.1814 25.2079 69.6356 25.0795C70.0866 24.9511 70.4405 24.782 70.6974 24.569C70.9511 24.356 71.1265 24.1117 71.2173 23.8298C71.3081 23.5511 71.352 23.266 71.352 22.9779C71.352 22.7054 71.3112 22.4298 71.2298 22.151C71.1484 21.8723 70.9792 21.6123 70.7224 21.3743C70.4656 21.1362 70.1023 20.942 69.6231 20.7886C69.147 20.6351 68.5112 20.5599 67.7219 20.5599C67.1456 20.5599 66.6883 20.5725 66.3501 20.5975C66.0118 20.6226 65.8019 20.6445 65.7205 20.6601V25.1421V25.1453Z" fill="#4D4D4F"></path><path d="M77.7446 19.6171C77.7446 18.0041 78.559 17.196 80.1876 17.196H88.6317C89.3897 17.196 89.9284 17.362 90.2479 17.694C90.5673 18.026 90.7302 18.5053 90.7302 19.1317C90.7302 19.589 90.6644 20.0118 90.5329 20.3939C90.4013 20.776 90.2948 21.036 90.2134 21.1706H81.8664V23.8955H88.3122C89.0702 23.8955 89.6089 24.0615 89.9284 24.3935C90.2478 24.7255 90.4107 25.2048 90.4107 25.8343C90.4107 26.2916 90.3449 26.7144 90.2134 27.0965C90.0818 27.4786 89.9754 27.7386 89.8908 27.8733H81.8664V30.7015H90.608V34.6761H77.7446V19.6203V19.6171Z" fill="#4D4D4F"></path><path d="M107.155 33.3701C106.973 33.5047 106.713 33.6707 106.378 33.8681C106.04 34.0622 105.617 34.2533 105.106 34.4412C104.596 34.6291 103.994 34.7889 103.305 34.9267C102.613 35.0614 101.833 35.1303 100.959 35.1303C99.7253 35.1303 98.557 34.9392 97.4545 34.5571C96.3521 34.175 95.3843 33.6018 94.5543 32.8376C93.7243 32.0734 93.0634 31.1212 92.5779 29.9843C92.0925 28.8474 91.8481 27.5225 91.8481 26.0097C91.8481 24.4969 92.083 23.219 92.5529 22.0727C93.0227 20.9263 93.6647 19.9585 94.4791 19.1693C95.2934 18.38 96.2487 17.7755 97.3418 17.362C98.438 16.9455 99.6188 16.7388 100.884 16.7388C101.558 16.7388 102.168 16.7826 102.71 16.8672C103.252 16.9518 103.734 17.0614 104.154 17.1992C104.574 17.3339 104.931 17.4779 105.228 17.6314C105.526 17.7849 105.764 17.9196 105.946 18.0386C106.325 18.3267 106.597 18.6274 106.76 18.9437C106.923 19.257 107.007 19.5858 107.007 19.9241C107.007 20.2624 106.945 20.5536 106.823 20.8418C106.7 21.1299 106.55 21.3899 106.378 21.6185C106.206 21.8472 106.033 22.0445 105.858 22.2042C105.686 22.3671 105.542 22.4798 105.426 22.5488C105.26 22.3796 105.05 22.1792 104.796 21.9505C104.539 21.7219 104.232 21.512 103.869 21.3272C103.506 21.1393 103.092 20.9796 102.622 20.8418C102.153 20.7071 101.63 20.6382 101.053 20.6382C100.33 20.6382 99.6689 20.7603 99.077 21.0078C98.485 21.2552 97.9682 21.6123 97.5328 22.0789C97.0975 22.5456 96.7592 23.1094 96.5212 23.7734C96.2832 24.4374 96.1641 25.1828 96.1641 26.016C96.1641 26.8491 96.2957 27.6133 96.5588 28.2585C96.8219 28.9037 97.1852 29.4424 97.6456 29.8747C98.106 30.3069 98.6541 30.6358 99.2868 30.855C99.9195 31.0774 100.609 31.187 101.348 31.187C102.269 31.187 103.064 31.068 103.731 30.8299C104.398 30.5919 104.906 30.3445 105.25 30.0908L107.101 33.3763H107.151L107.155 33.3701Z" fill="#4D4D4F"></path><path d="M108.166 34.6699V19.0816C108.166 18.3862 108.364 17.8976 108.758 17.6157C109.153 17.337 109.673 17.196 110.315 17.196C110.791 17.196 111.217 17.2556 111.586 17.3746C111.956 17.4936 112.191 17.5688 112.291 17.6032V34.6699H108.166Z" fill="#4D4D4F"></path><path d="M115.473 29.6774C115.574 29.7619 115.796 29.8935 116.141 30.072C116.485 30.2506 116.924 30.4291 117.45 30.6076C117.976 30.7861 118.587 30.949 119.276 31.0931C119.968 31.2371 120.716 31.3092 121.521 31.3092C122.179 31.3092 122.705 31.2622 123.103 31.1683C123.498 31.0743 123.802 30.9521 124.018 30.7987C124.231 30.6452 124.372 30.4729 124.437 30.2756C124.503 30.0814 124.538 29.881 124.538 29.6774C124.538 29.2702 124.378 28.9351 124.055 28.672C123.736 28.4089 123.138 28.2022 122.264 28.0487L119.746 27.5914C119.088 27.4724 118.427 27.3033 117.769 27.0809C117.111 26.8617 116.523 26.5547 116.003 26.1632C115.483 25.7717 115.06 25.2706 114.731 24.6598C114.402 24.0491 114.236 23.2942 114.236 22.3922C114.236 21.6123 114.377 20.8763 114.656 20.1903C114.935 19.5013 115.364 18.9031 115.94 18.3957C116.516 17.8851 117.246 17.4842 118.126 17.1867C119.006 16.8891 120.04 16.7419 121.224 16.7419C122.079 16.7419 122.827 16.7889 123.47 16.8829C124.112 16.9768 124.663 17.0896 125.123 17.2274C125.584 17.3621 125.96 17.4999 126.248 17.6346C126.536 17.7693 126.746 17.882 126.877 17.9666C127.156 18.1357 127.425 18.3706 127.679 18.6682C127.933 18.9657 128.061 19.3165 128.061 19.7268C128.061 20.015 128.011 20.2906 127.914 20.5537C127.814 20.8168 127.695 21.0579 127.557 21.2803C127.416 21.5027 127.266 21.6937 127.1 21.8535C126.934 22.0163 126.796 22.1385 126.68 22.2231C126.514 22.0539 126.27 21.8629 125.938 21.6499C125.609 21.4369 125.214 21.2459 124.754 21.0767C124.293 20.9076 123.767 20.7635 123.172 20.6445C122.58 20.5255 121.944 20.466 121.271 20.466C120.597 20.466 120.118 20.5223 119.739 20.632C119.36 20.7416 119.075 20.8794 118.887 21.0391C118.699 21.202 118.574 21.3837 118.518 21.5873C118.461 21.7908 118.43 21.9788 118.43 22.1479C118.43 22.3014 118.452 22.4454 118.493 22.5801C118.533 22.7148 118.634 22.8463 118.79 22.9748C118.947 23.1032 119.169 23.2222 119.457 23.3318C119.746 23.4414 120.137 23.5479 120.629 23.6513L123.247 24.1869C124.168 24.3748 124.979 24.6066 125.681 24.8884C126.379 25.1672 126.968 25.5117 127.447 25.9189C127.926 26.3261 128.284 26.8178 128.522 27.3972C128.76 27.9735 128.879 28.6626 128.879 29.4613C128.879 31.2434 128.233 32.6372 126.94 33.6394C125.646 34.6417 123.823 35.1428 121.471 35.1428C120.4 35.1428 119.417 35.0489 118.521 34.8641C117.622 34.6762 116.839 34.46 116.162 34.2157C115.486 33.9683 114.941 33.7365 114.521 33.5142C114.102 33.2949 113.851 33.1415 113.77 33.0569L115.473 29.693V29.6774Z" fill="#4D4D4F"></path><path d="M129.007 34.6699C129.352 33.7178 129.771 32.6122 130.266 31.3468C130.761 30.0814 131.29 28.7409 131.857 27.3221C132.424 25.9033 133.019 24.4562 133.636 22.9779C134.253 21.4996 134.858 20.0745 135.45 18.6995C135.763 17.9697 136.145 17.4592 136.599 17.171C137.05 16.8829 137.648 16.7388 138.388 16.7388C138.666 16.7388 138.942 16.7733 139.214 16.8422C139.487 16.9111 139.728 16.9925 139.944 17.0834C140.157 17.1773 140.33 17.265 140.464 17.3496C140.596 17.4341 140.677 17.4843 140.712 17.503C140.959 17.929 141.285 18.5993 141.686 19.5138C142.09 20.4315 142.528 21.462 143.007 22.6083C143.487 23.7547 143.978 24.9574 144.489 26.2133C144.999 27.4693 145.472 28.6626 145.908 29.7933C146.343 30.924 146.725 31.9231 147.057 32.8001C147.386 33.6739 147.618 34.3003 147.749 34.673H143.205C143.023 34.1813 142.826 33.6332 142.613 33.0287C142.4 32.4274 142.134 31.7164 141.823 30.902H134.639C134.375 31.6161 134.141 32.2676 133.934 32.8627C133.727 33.4578 133.511 34.0592 133.279 34.6699H129.007ZM133.649 15.082C133.715 14.7249 133.821 14.3741 133.968 14.0233C134.115 13.6757 134.31 13.3656 134.548 13.0931C134.786 12.8206 135.074 12.6045 135.412 12.4448C135.75 12.285 136.142 12.2036 136.584 12.2036C136.978 12.2036 137.329 12.238 137.633 12.3069C137.937 12.3759 138.197 12.4416 138.41 12.5105L139.027 12.7141C139.208 12.7642 139.359 12.8018 139.484 12.83C139.606 12.8551 139.75 12.8676 139.916 12.8676C140.113 12.8676 140.286 12.8049 140.436 12.6765C140.583 12.5481 140.699 12.3257 140.781 12L142.979 12.4573C142.898 12.8143 142.785 13.1651 142.647 13.5159C142.506 13.8636 142.318 14.1737 142.08 14.4461C141.842 14.7186 141.557 14.9348 141.228 15.0945C140.9 15.2574 140.505 15.3357 140.044 15.3357C139.7 15.3357 139.38 15.2981 139.092 15.2198C138.804 15.1446 138.494 15.0632 138.165 14.9786L137.573 14.8001C137.442 14.7656 137.298 14.7312 137.141 14.6967C136.984 14.6623 136.84 14.6466 136.709 14.6466C136.527 14.6466 136.364 14.7155 136.214 14.8502C136.067 14.9849 135.951 15.2229 135.869 15.5643L133.649 15.0788V15.082ZM140.414 27.0527C140.248 26.5954 140.06 26.0818 139.847 25.5117C139.634 24.9417 139.427 24.3905 139.23 23.8549C139.033 23.3193 138.848 22.8276 138.676 22.3765C138.504 21.9255 138.366 21.5904 138.269 21.3712C138.168 21.6092 138.037 21.9443 137.874 22.3765C137.708 22.8088 137.529 23.2942 137.332 23.8298C137.135 24.3654 136.928 24.9135 136.715 25.4742C136.502 26.0348 136.305 26.561 136.123 27.0527H140.42H140.414Z" fill="#4D4D4F"></path><path d="M147.868 25.9345C147.868 24.6441 148.103 23.4383 148.573 22.317C149.043 21.1957 149.688 20.2248 150.512 19.401C151.336 18.5773 152.307 17.929 153.425 17.4529C154.543 16.9768 155.746 16.7388 157.03 16.7388C158.314 16.7388 159.517 16.9768 160.635 17.4529C161.753 17.929 162.724 18.5773 163.548 19.401C164.371 20.2248 165.016 21.1957 165.486 22.317C165.956 23.4383 166.191 24.6441 166.191 25.9345C166.191 27.2249 165.956 28.4308 165.486 29.5521C165.016 30.6733 164.371 31.6443 163.548 32.468C162.724 33.2918 161.753 33.9401 160.635 34.4162C159.513 34.8922 158.314 35.1303 157.03 35.1303C155.746 35.1303 154.543 34.8922 153.425 34.4162C152.303 33.9401 151.336 33.2918 150.512 32.468C149.688 31.6443 149.043 30.6733 148.573 29.5521C148.103 28.4308 147.868 27.2249 147.868 25.9345ZM157.03 31.1557C157.738 31.1557 158.389 31.0241 158.981 30.761C159.573 30.4979 160.083 30.1284 160.513 29.6523C160.942 29.1762 161.274 28.625 161.512 27.9954C161.75 27.3659 161.869 26.68 161.869 25.9314C161.869 25.1828 161.75 24.4906 161.512 23.8548C161.274 23.219 160.939 22.6678 160.513 22.198C160.083 21.7313 159.573 21.3648 158.981 21.1017C158.389 20.8386 157.738 20.7071 157.03 20.7071C156.322 20.7071 155.67 20.8386 155.078 21.1017C154.486 21.3648 153.976 21.7313 153.547 22.198C153.118 22.6646 152.786 23.2159 152.548 23.8548C152.31 24.4906 152.191 25.1828 152.191 25.9314C152.191 26.68 152.31 27.3659 152.548 27.9954C152.786 28.625 153.121 29.1762 153.547 29.6523C153.976 30.1284 154.486 30.4979 155.078 30.761C155.67 31.0241 156.322 31.1557 157.03 31.1557Z" fill="#4D4D4F"></path><path d="M10.4884 25.2085C21.2342 17.7785 28.3249 11.0405 18.4123 0.706012C16.458 0.248204 14.5442 0.0140463 12.7925 0.000537218C-1.57067 -0.106034 14.9765 15.6711 12.3782 22.6568C12.018 23.6234 11.344 24.4565 10.4899 25.2085H10.4884Z" fill="url(#paint0_linear_26_11)"></path><path d="M10.4883 25.2085C21.234 17.7785 28.3248 11.0405 18.4121 0.706055C25.0406 9.88173 20.6891 15.0827 12.5672 19.7899C12.7218 20.8451 12.6903 21.8148 12.3766 22.6583C12.0163 23.625 11.3424 24.458 10.4883 25.21V25.2085Z" fill="#111B45"></path><path d="M18.4122 0.706055C28.3249 11.0405 21.2341 17.7785 10.4884 25.21C6.0814 29.0886 -3.1318 30.8283 1.07253 37.817C4.01 42.6983 6.10391 45.5097 7.66796 46.8981C4.9001 41.8277 9.8129 40.7575 20.0858 35.4124C26.5296 31.9105 35.8209 29.6966 36.1751 20.1036C36.5789 9.17175 27.0985 2.73992 18.4107 0.707556L18.4122 0.706055Z" fill="url(#paint1_linear_26_11)"></path><path d="M4.10154 42.5587C5.54101 44.6451 6.70579 46.0411 7.66944 46.8952C4.90158 41.8247 9.81438 40.7545 20.0873 35.4094C26.5311 31.9076 35.8224 29.6936 36.1766 20.1006C36.5804 9.16878 27.1 2.73696 18.4122 0.70459C31.1032 5.22413 31.8447 16.5012 28.5185 21.336C22.1602 30.5792 1.41923 32.5275 4.10154 42.5587Z" fill="#EE1F42"></path><path d="M20.0873 35.4109C9.81442 40.7545 4.90161 41.8247 7.66947 46.8966C12.4562 51.137 12.3106 42.0649 16.2703 38.1052C17.303 37.0725 18.6208 36.2094 20.0873 35.4124V35.4109Z" fill="url(#paint2_linear_26_11)"></path><path d="M20.0873 35.4109C9.81442 40.7545 4.90161 41.8247 7.66947 46.8966C6.23601 43.2777 8.7577 42.3786 14.6447 40.3297C15.107 39.5071 15.6353 38.7401 16.2703 38.1052C17.303 37.0725 18.6208 36.2094 20.0873 35.4124V35.4109Z" fill="#0C1940"></path><defs><linearGradient id="paint0_linear_26_11" x1="19.9538" y1="16.6017" x2="-0.461419" y2="3.07911" gradientUnits="userSpaceOnUse"><stop stop-color="#6B3F98"></stop><stop offset="1" stop-color="#7E3F98"></stop></linearGradient><linearGradient id="paint1_linear_26_11" x1="0.165917" y1="39.8269" x2="31.0327" y2="8.95861" gradientUnits="userSpaceOnUse"><stop stop-color="#F68A1F"></stop><stop offset="0.49" stop-color="#EE203A"></stop><stop offset="1" stop-color="#CC2027"></stop></linearGradient><linearGradient id="paint2_linear_26_11" x1="12.0269" y1="39.3015" x2="20.7823" y2="48.0569" gradientUnits="userSpaceOnUse"><stop stop-color="#4B3F99"></stop><stop offset="0.02" stop-color="#4F3F98"></stop><stop offset="0.13" stop-color="#603F98"></stop><stop offset="0.27" stop-color="#6C3F98"></stop><stop offset="0.46" stop-color="#733F98"></stop><stop offset="1" stop-color="#753F98"></stop></linearGradient></defs></svg>